<svg id="Capa_1" data-name="Capa 1" xmlns="http://www.w3.org/2000/svg" viewBox="0 0 478 456"><defs><style>.cls-1{fill:#fff;}.cls-2{fill:#a496f3;}</style></defs><title>all-icon</title><rect class="cls-1" x="17" y="28" width="440" height="404"/><path class="cls-1" d="M435.25,484H76.75C43.81,484,17,458.43,17,427V85c0-31.43,26.81-57,59.75-57h358.5C468.19,28,495,53.57,495,85V427C495,458.43,468.19,484,435.25,484ZM76.75,66c-11,0-19.92,8.53-19.92,19V427c0,10.49,9,19,19.92,19h358.5c11,0,19.92-8.51,19.92-19V85c0-10.47-8.93-19-19.92-19Z" transform="translate(-17 -28)"/><path class="cls-2" d="M117,140.17a24.37,24.37,0,0,1-16.45-6.72,27,27,0,0,1-4.86-7.65,21.75,21.75,0,0,1,0-17.6,27,27,0,0,1,4.86-7.65,23.92,23.92,0,0,1,7.65-4.86,23.12,23.12,0,0,1,17.6,0,23.92,23.92,0,0,1,7.65,4.86,23.49,23.49,0,0,1,0,32.9A24.37,24.37,0,0,1,117,140.17Z" transform="translate(-17 -28)"/><path class="cls-2" d="M395,140.17H209.67a23.17,23.17,0,1,1,0-46.34H395a23.17,23.17,0,1,1,0,46.34Z" transform="translate(-17 -28)"/><path class="cls-2" d="M117,232.83a23,23,0,0,1-16.45-6.72,27.18,27.18,0,0,1-4.86-7.64,23,23,0,0,1-1.86-8.8,27.52,27.52,0,0,1,.47-4.41,13.81,13.81,0,0,1,1.39-4.4,17.64,17.64,0,0,1,2.08-4.17c.93-1.16,1.86-2.31,2.78-3.47a26.77,26.77,0,0,1,7.65-4.87,23.22,23.22,0,0,1,17.6,0,21.67,21.67,0,0,1,7.65,4.87,38.39,38.39,0,0,1,2.78,3.47,17.64,17.64,0,0,1,2.08,4.17,13.81,13.81,0,0,1,1.39,4.4,28.71,28.71,0,0,1,.47,4.41,23,23,0,0,1-1.86,8.8,27.18,27.18,0,0,1-4.86,7.64A23,23,0,0,1,117,232.83Z" transform="translate(-17 -28)"/><path class="cls-2" d="M395,232.83H209.67a23.17,23.17,0,1,1,0-46.33H395a23.17,23.17,0,1,1,0,46.33Z" transform="translate(-17 -28)"/><path class="cls-2" d="M117,418.17a22.92,22.92,0,0,1-21.31-32,24,24,0,0,1,4.86-7.65c8.57-8.57,24.1-8.57,32.9,0A24.33,24.33,0,0,1,140.17,395,22.95,22.95,0,0,1,117,418.17Z" transform="translate(-17 -28)"/><path class="cls-2" d="M395,418.17H209.67a23.17,23.17,0,1,1,0-46.34H395a23.17,23.17,0,0,1,0,46.34Z" transform="translate(-17 -28)"/><path class="cls-2" d="M117,325.5a22.92,22.92,0,0,1-21.31-32,24.09,24.09,0,0,1,4.86-7.65c8.57-8.57,24.1-8.57,32.9,0a24.33,24.33,0,0,1,6.72,16.45A22.95,22.95,0,0,1,117,325.5Z" transform="translate(-17 -28)"/><path class="cls-2" d="M395,325.5H209.67a23.17,23.17,0,1,1,0-46.33H395a23.17,23.17,0,1,1,0,46.33Z" transform="translate(-17 -28)"/></svg>