<?xml version="1.0" encoding="utf-8"?>
<!-- Generator: Adobe Illustrator 23.1.0, SVG Export Plug-In . SVG Version: 6.00 Build 0)  -->
<svg version="1.1" id="Layer_1" xmlns="http://www.w3.org/2000/svg" xmlns:xlink="http://www.w3.org/1999/xlink" x="0px" y="0px"
	 viewBox="0 0 512 512" style="enable-background:new 0 0 512 512;" xml:space="preserve">
<style type="text/css">
	.st0{fill:#CCCBD8;}
</style>
<path class="st0" d="M415.4,495.4L256,336L96.6,495.4c-22.1,22.1-57.9,22.1-80,0s-22.1-57.9,0-80L176,256L16.6,96.6
	c-22.1-22.1-22.1-57.9,0-80s57.9-22.1,80,0L256,176L415.4,16.6c22.1-22.1,57.9-22.1,80,0s22.1,57.9,0,80L336,256l159.4,159.4
	c22.1,22.1,22.1,57.9,0,80S437.5,517.5,415.4,495.4z"/>
</svg>
