<?xml version="1.0" encoding="utf-8"?>
<!-- Generator: Adobe Illustrator 23.1.0, SVG Export Plug-In . SVG Version: 6.00 Build 0)  -->
<svg version="1.1" id="Layer_1" xmlns="http://www.w3.org/2000/svg" xmlns:xlink="http://www.w3.org/1999/xlink" x="0px" y="0px"
	 viewBox="0 0 24.2 24.2" style="enable-background:new 0 0 24.2 24.2;" xml:space="preserve">
<style type="text/css">
	.st0{fill:#F15A24;}
	.st1{fill:none;stroke:#A496F3;stroke-width:2;stroke-miterlimit:10;}
</style>
<g>
	<path class="st0" d="M4,15.4l3.2-7.2c0.2-0.5,0.6-0.8,1.2-0.8h0.1c0.5,0,0.9,0.3,1.2,0.8l3.2,7.2c0.1,0.1,0.1,0.3,0.1,0.4
		c0,0.5-0.4,1-1,1c-0.5,0-0.8-0.3-1-0.7l-0.6-1.4h-4l-0.6,1.5c-0.2,0.4-0.5,0.6-0.9,0.6c-0.5,0-0.9-0.4-0.9-1
		C3.9,15.7,3.9,15.5,4,15.4z M9.7,12.9l-1.3-3l-1.3,3H9.7z"/>
	<path class="st0" d="M13.9,14.7L13.9,14.7c0-1.6,1.2-2.3,2.8-2.3c0.7,0,1.2,0.1,1.7,0.3v-0.1c0-0.8-0.5-1.3-1.5-1.3
		c-0.5,0-1,0.1-1.4,0.2c-0.1,0-0.2,0.1-0.3,0.1c-0.5,0-0.8-0.4-0.8-0.8c0-0.4,0.2-0.7,0.5-0.8c0.6-0.2,1.3-0.4,2.2-0.4
		c1.1,0,1.9,0.3,2.4,0.8c0.5,0.5,0.8,1.3,0.8,2.2v3.2c0,0.5-0.4,1-1,1c-0.6,0-1-0.4-1-0.8v0c-0.5,0.5-1.2,0.9-2.1,0.9
		C15,16.8,13.9,16.1,13.9,14.7z M18.4,14.2v-0.4c-0.3-0.2-0.8-0.3-1.3-0.3c-0.9,0-1.4,0.3-1.4,1v0c0,0.5,0.4,0.9,1.1,0.9
		C17.8,15.4,18.4,14.9,18.4,14.2z"/>
</g>
<circle class="st1" cx="12" cy="12.2" r="11"/>
</svg>
