<?xml version="1.0" encoding="utf-8"?>
<!-- Generator: Adobe Illustrator 23.1.0, SVG Export Plug-In . SVG Version: 6.00 Build 0)  -->
<svg version="1.1" id="Layer_1" xmlns="http://www.w3.org/2000/svg" xmlns:xlink="http://www.w3.org/1999/xlink" x="0px" y="0px"
	 viewBox="0 0 340.1 194.8" style="enable-background:new 0 0 340.1 194.8;" xml:space="preserve">
<style type="text/css">
	.st0{fill:#F15A24;}
</style>
<g>
	<path class="st0" d="M2.4,165.3L68.3,16.5C72.9,6.2,81.3,0,92.7,0h2.4c11.3,0,19.4,6.2,24,16.5l65.9,148.9c1.4,3,2.2,5.7,2.2,8.4
		c0,11.1-8.6,20-19.7,20c-9.7,0-16.2-5.7-20-14.3l-12.7-29.7H51.6l-13.2,31.1c-3.5,8.1-10.5,13-19.2,13C8.4,193.7,0,185.1,0,174.2
		C0,171.3,1.1,168.3,2.4,165.3z M119.4,112.9L93.2,50.5L67,112.9H119.4z"/>
	<path class="st0" d="M206.9,150.5v-0.5c0-31.6,24-46.2,58.4-46.2c14.6,0,25.1,2.4,35.4,5.9v-2.4c0-17-10.5-26.5-31.1-26.5
		c-11.3,0-20.5,1.6-28.4,4.1c-2.4,0.8-4.1,1.1-5.9,1.1c-9.5,0-17-7.3-17-16.7c0-7.3,4.6-13.5,11.1-15.9c13-4.9,27-7.6,46.2-7.6
		c22.4,0,38.6,5.9,48.9,16.2c10.8,10.8,15.7,26.7,15.7,46.2V174c0,11.1-8.9,19.7-20,19.7c-11.9,0-19.7-8.4-19.7-17v-0.3
		c-10,11.1-23.8,18.4-43.8,18.4C229.3,194.8,206.9,179.1,206.9,150.5z M301.2,141v-7.3c-7-3.2-16.2-5.4-26.2-5.4
		c-17.6,0-28.4,7-28.4,20v0.5c0,11.1,9.2,17.6,22.4,17.6C288.2,166.4,301.2,155.9,301.2,141z"/>
</g>
</svg>
