<?xml version="1.0" encoding="utf-8"?>
<!-- Generator: Adobe Illustrator 23.1.0, SVG Export Plug-In . SVG Version: 6.00 Build 0)  -->
<svg version="1.1" id="Layer_1" xmlns="http://www.w3.org/2000/svg" xmlns:xlink="http://www.w3.org/1999/xlink" x="0px" y="0px"
	 viewBox="0 0 50 50" style="enable-background:new 0 0 50 50;" xml:space="preserve">
<style type="text/css">
	.st0{fill:#6BED7A;}
</style>
<path class="st0" d="M46.9,13.6c-0.2,1.2-0.7,2.4-1.6,3.4c-7.9,8-15.8,16.1-23.6,24.1c-2.4,2.4-5.8,2.4-8.1,0c-2.9-3-5.9-6-8.8-9
	c-2.9-3-2-7.7,1.6-9.4c2-0.9,4.4-0.6,6,1c1.7,1.6,3.2,3.3,4.9,4.9c0.1,0.1,0.2,0.3,0.3,0.4c3.6-3.7,7.1-7.2,10.6-10.8
	c3.1-3.1,6.1-6.2,9.2-9.4c1.6-1.6,3.4-2.2,5.6-1.6C45.8,8.1,47.3,11,46.9,13.6z"/>
</svg>
