<?xml version="1.0" encoding="utf-8"?>
<!-- Generator: Adobe Illustrator 23.1.0, SVG Export Plug-In . SVG Version: 6.00 Build 0)  -->
<svg version="1.1" id="Layer_1" xmlns="http://www.w3.org/2000/svg" xmlns:xlink="http://www.w3.org/1999/xlink" x="0px" y="0px"
	 viewBox="0 0 512 512" style="enable-background:new 0 0 512 512;" xml:space="preserve">
<style type="text/css">
	.st0{fill:#E3F4FC;}
	.st1{fill:#BDD9E5;}
	.st2{fill:#34ABE0;}
	.st3{fill:#1895B7;}
	.st4{fill:#3B3D4C;}
	.st5{fill:#F75772;}
</style>
<g>
	<path class="st0" d="M17.9,264.7C71.1,324.8,157.9,364,256,364c98.1,0,184.9-39.2,238.1-99.3c-53.2-60.1-140-99.3-238.1-99.3
		C157.9,165.4,71.1,204.6,17.9,264.7z"/>
	<path class="st1" d="M256,165.4c98.1,0,184.9,39.2,238.1,99.3c-0.2,0.2-0.4,0.4-0.6,0.6c-60.2-38-144.4-61.5-237.5-61.5
		c-93.1,0-177.3,23.6-237.5,61.5c-0.2-0.2-0.4-0.4-0.6-0.6C71.1,204.6,157.9,165.4,256,165.4z"/>
	<path class="st2" d="M170.6,175.7c27-6.7,55.7-10.3,85.4-10.3c29.7,0,58.4,3.6,85.5,10.3l0,0c17.5,20,28.1,46.1,28.1,74.8
		c0,62.7-50.8,113.6-113.6,113.6c-62.7,0-113.5-50.8-113.5-113.6C142.5,221.8,153.1,195.6,170.6,175.7z"/>
	<path class="st3" d="M256,165.4c-29.7,0-58.4,3.6-85.4,10.3c-9.9,11.3-17.6,24.5-22.4,39.1c33.8-7.1,70.1-11,107.8-11
		c37.8,0,74,3.9,107.8,11c-4.8-14.6-12.5-27.8-22.4-39.1C314.4,169,285.7,165.4,256,165.4z"/>
	<path class="st4" d="M256,201.7c26.9,0,48.7,21.8,48.7,48.7s-21.8,48.7-48.7,48.7c-26.9,0-48.7-21.8-48.7-48.7
		S229.1,201.7,256,201.7z"/>
</g>
<path class="st5" d="M495.7,509.2L2.8,16.3c-3.7-3.7-3.7-9.8,0-13.5c3.7-3.7,9.8-3.7,13.5,0l492.9,492.9c3.7,3.7,3.7,9.8,0,13.5
	c-1.9,1.9-4.3,2.8-6.8,2.8S497.5,511.1,495.7,509.2z"/>
</svg>
