<?xml version="1.0" encoding="UTF-8"?>
<svg xmlns="http://www.w3.org/2000/svg" xmlns:xlink="http://www.w3.org/1999/xlink" width="512" height="512" viewBox="0 0 58 58" version="1.1"><!-- Generator: Sketch 51.3 (57544) - http://www.bohemiancoding.com/sketch --><title>009 - Highlighter</title><desc>Created with Sketch.</desc><defs/><g id="Page-1" stroke="none" stroke-width="1" fill="none" fill-rule="evenodd"><g id="009---Highlighter" transform="translate(-1.000000, 0.000000)" fill-rule="nonzero"><path d="M58.778,51.1 L56.751,49.183 L55.151,44.826 L54.851,36.011 L52.716,38.334 L54.85,36.01 L52.58,33.86 L51.12,32.49 L37.58,19.68 L36.13,18.31 L33.86,16.16 L13.716,0.834 C12.0483146,-0.442898221 9.68087013,-0.231348595 8.266,1.321 L2.1,8.027 C0.67129755,9.58646714 0.62841413,11.9660681 2,13.576 L18.482,32.888 L20.752,35.038 L22.212,36.408 L39.47,52.74 L48.16,52.432 L52.56,53.747 L56.46,57.438 C56.5865256,57.557412 56.7660265,57.6024702 56.9339482,57.5569701 C57.1018698,57.5114701 57.2340681,57.3819539 57.283,57.215 L58.915,51.606 C58.9684993,51.4249948 58.9155117,51.2292888 58.778,51.1 Z" id="Shape" fill="#FF5364"/><polygon id="Shape" fill="#2C3E50" points="54.85 36.01 39.47 52.74 22.21 36.41 20.75 35.04 18.48 32.89 33.86 16.16 36.13 18.31 37.58 19.68 51.12 32.49 52.58 33.86"/><polygon id="Shape" fill="#35495E" points="54.85 36.01 46.76 44.81 25.9 24.82 33.86 16.16 36.13 18.31 37.58 19.68 51.12 32.49 52.58 33.86"/><path d="M39.268,47.862 C38.8709344,47.862404 38.5112444,47.6278472 38.3514905,47.2643366 C38.1917366,46.900826 38.2621862,46.4772335 38.531,46.185 L39.231,45.425 C39.6114672,45.0538522 40.2157989,45.0451844 40.6067541,45.4052677 C40.9977093,45.765351 41.0386697,46.3683553 40.7,46.778 L40,47.539 C39.8115801,47.7438402 39.5463169,47.8608894 39.268,47.862 Z" id="Shape" fill="#35495E"/><path d="M52.58,33.86 L43.5,43.74 C43.3074685,43.9433684 43.0400466,44.0590103 42.76,44.06 C42.3629606,44.0587266 42.004282,43.8226809 41.8460505,43.4585316 C41.687819,43.0943824 41.7600098,42.6711137 42.03,42.38 L51.11,32.5 L51.12,32.49 L52.58,33.86 Z" id="Shape" fill="#556080"/><path d="M25.71,32.6 L22.22,36.4 L22.21,36.41 L20.75,35.04 L24.24,31.25 C24.6209281,30.885429 25.2194773,30.8792667 25.6078307,31.2359177 C25.996184,31.5925687 26.0408923,32.1894777 25.71,32.6 Z" id="Shape" fill="#35495E"/><path d="M37.58,19.68 L34.1,23.48 C33.9074685,23.6833684 33.6400466,23.7990103 33.36,23.8 C32.9629606,23.7987266 32.604282,23.5626809 32.4460505,23.1985316 C32.287819,22.8343824 32.3600098,22.4111137 32.63,22.12 L36.12,18.32 L36.13,18.31 L37.58,19.68 Z" id="Shape" fill="#556080"/><polygon id="Shape" fill="#556080" points="54.847 36.013 55.151 44.828 48.161 52.431 39.47 52.739"/><polygon id="Shape" fill="#547580" points="56.751 49.185 52.557 53.746 48.161 52.431 55.151 44.828"/><path d="M32.134,28.709 L30.7,30.266 C30.5207773,30.4625264 30.2700145,30.5786708 30.0042112,30.5882646 C29.738408,30.5978583 29.4799245,30.5000944 29.287,30.317 L12.743,14.668 C11.9346454,13.8989528 11.8901929,12.6245 12.643,11.801 L12.711,11.727 C13.0695762,11.3339751 13.5712957,11.1018779 14.1029831,11.0830638 C14.6346706,11.0642496 15.1515405,11.2603033 15.537,11.627 L32.084,27.275 C32.4877134,27.6599321 32.5099223,28.296884 32.134,28.709 Z" id="Shape" fill="#FB7B76"/></g></g></svg>
