<?xml version="1.0" encoding="utf-8"?>
<!-- Generator: Adobe Illustrator 23.1.0, SVG Export Plug-In . SVG Version: 6.00 Build 0)  -->
<svg version="1.1" id="Layer_1" xmlns="http://www.w3.org/2000/svg" xmlns:xlink="http://www.w3.org/1999/xlink" x="0px" y="0px"
	 viewBox="0 0 128 128" style="enable-background:new 0 0 128 128;" xml:space="preserve">
<style type="text/css">
	.st0{fill:#7D69EE;}
	.st1{fill:#2C3E50;}
	.st2{fill:#35495E;}
	.st3{fill:#556080;}
	.st4{fill:#547580;}
	.st5{fill:#A496F3;}
</style>
<title>009 - Highlighter</title>
<desc>Created with Sketch.</desc>
<g transform="translate(-1.000000, 0.000000)">
	<path id="Shape" class="st0" d="M15.7,126.5l4-4.8l9.6-3.2l19.7-0.8l-4.8-4.8l4.8,4.8l4.8-4.8l3.2-3.2l28.4-29.2l3.2-3.2l4.8-4.8
		L127,28.5c3.2-4,2.4-8.8-0.8-11.7L112.1,3.6c-3.2-3.2-8.8-3.2-11.7,0L56.3,38.1l-4.8,4.8l-3.2,3.2l-36.6,38l0.8,18.9l-3.2,9.6
		l-8,8.8c0,0-0.8,0.8,0,0.8s0.8,0.8,0.8,0.8l12.5,4h1.1V126.5z"/>
	<polygon class="st1" points="48.6,117.8 12.5,84.1 47.8,46.1 51,42.9 55.8,38.4 91.9,72.1 87.1,76.9 83.9,80.1 56.6,109.8 
		53.4,113 	"/>
	<polygon class="st2" points="48.6,117.8 29.8,99.7 73.1,54.8 91.9,72.1 87.1,76.9 83.9,80.1 56.6,109.8 53.4,113 	"/>
	<path class="st2" d="M22.6,84.1c0-0.8,0.8-1.6,1.6-2.4s1.6,0,2.4,0.8l1.6,1.6c0.8,0.8,0.8,2.4,0,3.2c-0.8,0.8-2.4,0-3.2-0.8
		l-1.6-1.6L22.6,84.1z"/>
	<path class="st3" d="M53.4,113L32.2,93.3c-0.8-0.8-0.8-0.8-0.8-1.6s0.8-1.6,1.6-2.4c0.8-0.8,1.6,0,2.4,0.8l21.2,19.7l0,0L53.4,113z
		"/>
	<path class="st2" d="M56.6,54l-8-8l0,0l3.2-3.2l8,8c0.8,0.8,0.8,2.4,0,3.2C59,54.8,57.4,54.8,56.6,54z"/>
	<path class="st3" d="M83.9,80.1l-8-8c-0.5-0.8-0.5-0.8-0.5-1.6s0.8-1.6,1.6-2.4c0.8-0.8,1.6,0,2.4,0.8l8,8l0,0L83.9,80.1z"/>
	<polygon class="st3" points="48.6,117.8 29,118.6 12.5,102.9 12.5,84.1 	"/>
	<polygon class="st4" points="19.4,121.8 10.1,112.2 12.5,102.9 29,118.6 	"/>
	<path class="st5" d="M65.1,68.1l-4-3.2c0,0-0.8-0.8-0.8-1.6s0-1.6,0.8-1.6l34.5-35.3c1.6-1.6,4.8-1.6,6.4,0l0,0
		c0.8,0.8,1.6,1.6,1.6,3.2c0,1.6-0.8,2.4-1.6,3.2L67.5,68.1C66.7,68.9,65.9,68.9,65.1,68.1z"/>
</g>
</svg>
