<?xml version="1.0" encoding="utf-8"?>
<!-- Generator: Adobe Illustrator 23.1.0, SVG Export Plug-In . SVG Version: 6.00 Build 0)  -->
<svg version="1.1" id="Layer_1" xmlns="http://www.w3.org/2000/svg" xmlns:xlink="http://www.w3.org/1999/xlink" x="0px" y="0px"
	 viewBox="0 0 16 16" style="enable-background:new 0 0 16 16;" xml:space="preserve">
<style type="text/css">
	.st0{fill:#7D69EE;}
	.st1{fill:#2C3E50;}
	.st2{fill:#35495E;}
	.st3{fill:#556080;}
	.st4{fill:#547580;}
	.st5{fill:#A496F3;}
</style>
<title>009 - Highlighter</title>
<desc>Created with Sketch.</desc>
<g transform="translate(-1.000000, 0.000000)">
	<path id="Shape" class="st0" d="M2.8,16l0.5-0.6L4.5,15L7,14.9l-0.6-0.6L7,14.9l0.6-0.6l0.4-0.4l3.6-3.7l0.4-0.4l0.6-0.6l4.3-5.6
		c0.4-0.5,0.3-1.1-0.1-1.5l-1.8-1.7c-0.4-0.4-1.1-0.4-1.5,0L7.9,4.8L7.3,5.4L6.9,5.8l-4.6,4.8L2.4,13l-0.4,1.2l-1,1.1
		c0,0-0.1,0.1,0,0.1s0.1,0.1,0.1,0.1L2.7,16C2.7,16,2.8,16,2.8,16z"/>
	<polygon class="st1" points="7,14.9 2.4,10.6 6.9,5.8 7.3,5.4 7.9,4.8 12.5,9.1 11.9,9.7 11.5,10.1 8,13.9 7.6,14.3 	"/>
	<polygon class="st2" points="7,14.9 4.6,12.6 10.1,6.9 12.5,9.1 11.9,9.7 11.5,10.1 8,13.9 7.6,14.3 	"/>
	<path class="st2" d="M3.7,10.6c0-0.1,0.1-0.2,0.2-0.3c0.1-0.1,0.2,0,0.3,0.1l0.2,0.2c0.1,0.1,0.1,0.3,0,0.4S4.1,11,4,10.9l-0.2-0.2
		C3.8,10.7,3.7,10.6,3.7,10.6z"/>
	<path class="st3" d="M7.6,14.3l-2.7-2.5c-0.1-0.1-0.1-0.1-0.1-0.2c0-0.1,0.1-0.2,0.2-0.3c0.1-0.1,0.2,0,0.3,0.1L8,13.9l0,0
		L7.6,14.3z"/>
	<path class="st2" d="M8,6.8l-1-1l0,0l0.4-0.4l1,1c0.1,0.1,0.1,0.3,0,0.4C8.3,6.9,8.1,6.9,8,6.8z"/>
	<path class="st3" d="M11.5,10.1l-1-1c-0.1-0.1-0.1-0.1-0.1-0.2c0-0.1,0.1-0.2,0.2-0.3c0.1-0.1,0.2,0,0.3,0.1l1,1l0,0L11.5,10.1z"/>
	<polygon class="st3" points="7,14.9 4.5,15 2.4,13 2.4,10.6 	"/>
	<polygon class="st4" points="3.3,15.4 2.1,14.2 2.4,13 4.5,15 	"/>
	<path class="st5" d="M9.1,8.6L8.6,8.2C8.6,8.2,8.5,8.1,8.5,8s0-0.2,0.1-0.2L13,3.3c0.2-0.2,0.6-0.2,0.8,0l0,0
		C13.9,3.4,14,3.5,14,3.7S13.9,4,13.8,4.1L9.4,8.6C9.3,8.7,9.2,8.7,9.1,8.6z"/>
</g>
</svg>
