<?xml version="1.0" encoding="utf-8"?>
<!-- Generator: Adobe Illustrator 23.1.0, SVG Export Plug-In . SVG Version: 6.00 Build 0)  -->
<svg version="1.1" id="Layer_1" xmlns="http://www.w3.org/2000/svg" xmlns:xlink="http://www.w3.org/1999/xlink" x="0px" y="0px"
	 viewBox="0 0 48 48" style="enable-background:new 0 0 48 48;" xml:space="preserve">
<style type="text/css">
	.st0{fill:#7D69EE;}
	.st1{fill:#2C3E50;}
	.st2{fill:#35495E;}
	.st3{fill:#556080;}
	.st4{fill:#547580;}
	.st5{fill:#A496F3;}
</style>
<title>009 - Highlighter</title>
<desc>Created with Sketch.</desc>
<g transform="translate(-1.000000, 0.000000)">
	<path id="Shape" class="st0" d="M6.5,47.6l1.5-1.8l3.6-1.2l7.4-0.3l-1.8-1.8l1.8,1.8l1.8-1.8l1.2-1.2l10.7-11l1.2-1.2l1.8-1.8
		l12.7-16.6c1.2-1.5,0.9-3.3-0.3-4.4l-5.3-5c-1.2-1.2-3.3-1.2-4.4,0l-16.6,13l-1.8,1.8l-1.2,1.2L5,31.6l0.3,7.1l-1.2,3.6l-3,3.3
		c0,0-0.3,0.3,0,0.3s0.3,0.3,0.3,0.3l4.7,1.5H6.5z"/>
	<polygon class="st1" points="18.9,44.3 5.3,31.6 18.6,17.3 19.8,16.1 21.6,14.4 35.2,27.1 33.4,28.9 32.2,30.1 21.9,41.3 
		20.7,42.5 	"/>
	<polygon class="st2" points="18.9,44.3 11.8,37.5 28.1,20.6 35.2,27.1 33.4,28.9 32.2,30.1 21.9,41.3 20.7,42.5 	"/>
	<path class="st2" d="M9.1,31.6c0-0.3,0.3-0.6,0.6-0.9s0.6,0,0.9,0.3l0.6,0.6c0.3,0.3,0.3,0.9,0,1.2s-0.9,0-1.2-0.3l-0.6-0.6
		L9.1,31.6z"/>
	<path class="st3" d="M20.7,42.5l-8-7.4c-0.3-0.3-0.3-0.3-0.3-0.6c0-0.3,0.3-0.6,0.6-0.9c0.3-0.3,0.6,0,0.9,0.3l8,7.4l0,0L20.7,42.5
		z"/>
	<path class="st2" d="M21.9,20.3l-3-3l0,0l1.2-1.2l3,3c0.3,0.3,0.3,0.9,0,1.2C22.8,20.6,22.2,20.6,21.9,20.3z"/>
	<path class="st3" d="M32.2,30.1l-3-3C29,26.8,29,26.8,29,26.5c0-0.3,0.3-0.6,0.6-0.9c0.3-0.3,0.6,0,0.9,0.3l3,3l0,0L32.2,30.1z"/>
	<polygon class="st3" points="18.9,44.3 11.5,44.6 5.3,38.7 5.3,31.6 	"/>
	<polygon class="st4" points="7.9,45.8 4.4,42.2 5.3,38.7 11.5,44.6 	"/>
	<path class="st5" d="M25.1,25.6l-1.5-1.2c0,0-0.3-0.3-0.3-0.6s0-0.6,0.3-0.6l13-13.3c0.6-0.6,1.8-0.6,2.4,0l0,0
		c0.3,0.3,0.6,0.6,0.6,1.2c0,0.6-0.3,0.9-0.6,1.2L26,25.6C25.7,25.9,25.4,25.9,25.1,25.6z"/>
</g>
</svg>
