<?xml version="1.0" encoding="utf-8"?>
<!-- Generator: Adobe Illustrator 23.1.0, SVG Export Plug-In . SVG Version: 6.00 Build 0)  -->
<svg version="1.1" id="Capa_1" xmlns="http://www.w3.org/2000/svg" xmlns:xlink="http://www.w3.org/1999/xlink" x="0px" y="0px"
	 viewBox="0 0 512 512" style="enable-background:new 0 0 512 512;" xml:space="preserve">
<style type="text/css">
	.st0{fill:none;stroke:#A496F3;stroke-width:26;stroke-miterlimit:10;}
</style>
<g>
	<g>
		<path class="st0" d="M423.8,196.7h-29.6v-39.5c0-76.2-62-138.2-138.2-138.2S117.7,81,117.7,157.2v39.5H88.1
			c-5.5,0-9.9,4.4-9.9,9.9v246.9c0,21.8,17.7,39.5,39.5,39.5h276.5c21.8,0,39.5-17.7,39.5-39.5V206.6
			C433.7,201.1,429.3,196.7,423.8,196.7z M285.5,403c0.3,2.8-0.6,5.6-2.5,7.7c-1.9,2.1-4.5,3.3-7.3,3.3h-39.5
			c-2.8,0-5.5-1.2-7.3-3.3c-1.9-2.1-2.8-4.9-2.5-7.7l6.2-56c-10.1-7.3-16.2-19-16.2-31.8c0-21.8,17.7-39.5,39.5-39.5
			s39.5,17.7,39.5,39.5c0,12.8-6,24.4-16.2,31.8L285.5,403z M334.9,196.7H177v-39.5c0-43.6,35.5-79,79-79s79,35.5,79,79V196.7z"/>
	</g>
</g>
</svg>
