<svg id="Layer_1" data-name="Layer 1" xmlns="http://www.w3.org/2000/svg" viewBox="0 0 99.9 99.68"><defs><style>.cls-1{fill:#7ff795;}.cls-2{fill:#2c3e50;}.cls-3{fill:#35495e;}.cls-4{fill:#556080;}.cls-5{fill:#547580;}.cls-6{fill:#57aa3c;}</style></defs><title>main-icon</title><path id="Shape" class="cls-1" d="M25.1,113.6l3.3-3.5,7.6-2.7,15.2-.4-4-3.7,4,3.7,3.7-3.9,2.4-2.5L79.6,77.3,82,74.8l3.7-3.9,26.7-34.7a7,7,0,0,0-.8-9.4L100.1,16.1a7.19,7.19,0,0,0-9.6-.2L57.1,44.1,53.4,48,51,50.5,22.5,80.2l.4,15-2.3,7.6-6.4,6.7a.78.78,0,0,0-.2.8.9.9,0,0,0,.6.6l9.7,2.9A.83.83,0,0,0,25.1,113.6Z" transform="translate(-13.96 -14.16)"/><polygon class="cls-2" points="37.34 92.84 8.54 66.04 37.04 36.34 39.34 33.84 43.14 29.94 71.84 56.74 68.14 60.64 65.74 63.14 43.44 86.44 41.04 88.94 37.34 92.84"/><polygon class="cls-3" points="37.34 92.84 22.14 78.74 57.04 42.84 71.84 56.74 68.14 60.64 65.74 63.14 43.44 86.44 41.04 88.94 37.34 92.84"/><path class="cls-3" d="M30.9,79.9a1.78,1.78,0,0,1,1-1.6,1.88,1.88,0,0,1,1.9.3l1.3,1.2a1.82,1.82,0,0,1,0,2.4,1.72,1.72,0,0,1-2.4.1l-1.3-1.2A1.66,1.66,0,0,1,30.9,79.9Z" transform="translate(-13.96 -14.16)"/><path class="cls-4" d="M55,103.1,38,87.3a1.9,1.9,0,0,1-.5-1.3,1.71,1.71,0,0,1,1.1-1.6,1.88,1.88,0,0,1,1.9.3l17,15.8h0Z" transform="translate(-13.96 -14.16)"/><path class="cls-3" d="M57.5,56.6,51,50.5h0L53.4,48l6.5,6.1a1.73,1.73,0,0,1-2.4,2.5Z" transform="translate(-13.96 -14.16)"/><path class="cls-4" d="M79.7,77.3l-6.5-6.1a1.9,1.9,0,0,1-.5-1.3,1.71,1.71,0,0,1,1.1-1.6,1.88,1.88,0,0,1,1.9.3l6.5,6.1h0Z" transform="translate(-13.96 -14.16)"/><polygon class="cls-4" points="37.34 92.84 22.04 93.24 8.94 81.04 8.54 66.04 37.34 92.84"/><polygon class="cls-5" points="14.44 95.94 6.64 88.64 8.94 81.04 22.04 93.24 14.44 95.94"/><path class="cls-6" d="M64.2,67.8l-2.7-2.5a1.69,1.69,0,0,1,0-2.4L88.8,34.5a3.5,3.5,0,0,1,5-.1l.1.1A3.19,3.19,0,0,1,95,36.9a3.47,3.47,0,0,1-1,2.5L66.6,67.7A1.72,1.72,0,0,1,64.2,67.8Z" transform="translate(-13.96 -14.16)"/></svg>