<?xml version="1.0" encoding="utf-8"?>
<!-- Generator: Adobe Illustrator 23.1.0, SVG Export Plug-In . SVG Version: 6.00 Build 0)  -->
<svg version="1.1" id="Layer_1" xmlns="http://www.w3.org/2000/svg" xmlns:xlink="http://www.w3.org/1999/xlink" x="0px" y="0px"
	 viewBox="0 0 504.5 504.5" style="enable-background:new 0 0 504.5 504.5;" xml:space="preserve">
<style type="text/css">
	.st0{fill:#EFC75E;}
	.st1{fill:#F4D88F;}
	.st2{fill:#E3BD59;}
	.st3{fill:#FFCABA;}
	.st4{fill:#FFDCD2;}
	.st5{fill:#E5B5A7;}
	.st6{fill:#272828;}
</style>
<path class="st0" d="M492.5,145.8L172.3,461.6c0,0-163.8,48.8-171.3,41.4s37.4-175.3,37.4-175.3L358.6,11.9
	c15.4-15.8,40.2-15.8,55.5,0l78.4,78.8C507.9,105.6,507.9,130.4,492.5,145.8z"/>
<path class="st1" d="M66.4,367.1L418.1,15.4l-3.9-3.9C398.8-3.9,374-3.9,358.6,11.9L38.8,328.1c0,0-0.8,3.2-2.4,8.7L66.4,367.1
	L66.4,367.1z"/>
<path class="st2" d="M501.6,132.8c5.5-14.2,2.8-31.1-8.7-42.5l-7.9-7.9L133.3,434.1l30.7,30.3c4.3-1.2,7.1-2,8.3-2.4
	C172.3,462,501.6,132.8,501.6,132.8z"/>
<path class="st3" d="M0.6,501.8l2.4,2.4c18.5,2.8,160.7-39.4,169.4-42.1l0.4-0.4c0,0-9.1-42.5-16.9-50c-7.9-7.9-42.1-9.1-50-16.5
	c-7.9-7.9-8.7-42.1-16.9-50c-7.9-7.9-48-16.1-50-16.5C38.8,328.1-2.5,482.1,0.6,501.8L0.6,501.8z"/>
<path class="st4" d="M0.2,499.8c2.8-4.7,16.5-29.1,88.2-154.8c-7.9-7.9-48-16.1-50-16.5C38.8,328.1-0.2,473.8,0.2,499.8z"/>
<path class="st5" d="M0.2,500.2v1.2l2.4,2.4c18.5,2.8,160.7-39.4,169.4-42.1l0.4-0.4c0,0-8.7-42.1-16.5-50
	C25.4,486.1,3.8,498.3,0.2,500.2z"/>
<path class="st6" d="M27.4,473.1c-5.1-5.1-13.4-9.1-21.7-9.8c-4.3,22.1-7.1,38.2-4.7,40.6c2,2,16.9-0.4,36.6-4.7
	C37.6,489.2,33.3,479,27.4,473.1z"/>
</svg>
