<?xml version="1.0" encoding="utf-8"?>
<!-- Generator: Adobe Illustrator 23.1.0, SVG Export Plug-In . SVG Version: 6.00 Build 0)  -->
<svg version="1.1" id="Layer_1" xmlns="http://www.w3.org/2000/svg" xmlns:xlink="http://www.w3.org/1999/xlink" x="0px" y="0px"
	 viewBox="0 0 150 150" style="enable-background:new 0 0 150 150;" xml:space="preserve">
<style type="text/css">
	.st0{fill:#A496F3;}
	.st1{fill:#7D69EE;}
	.st2{fill:#2C3E50;}
	.st3{fill:#35495E;}
	.st4{fill:#556080;}
	.st5{fill:#547580;}
</style>
<circle class="st0" cx="75" cy="75" r="75"/>
<g>
	<title>009 - Highlighter</title>
	<desc>Created with Sketch.</desc>
	<g transform="translate(-1.000000, 0.000000)">
		<path id="Shape" class="st1" d="M39.9,123.8l3.2-3.5l7.4-2.7l15-0.4l-3.9-3.6l3.9,3.6l3.6-3.8l2.4-2.5l21.9-22.9l2.4-2.5l3.6-3.8
			l26.2-34.1c2.1-2.8,1.8-6.9-0.8-9.2l-11.3-10.5c-2.7-2.5-6.7-2.5-9.4-0.2L71.3,55.5l-3.6,3.8l-2.4,2.5L37.3,90.9l0.4,14.7
			l-2.2,7.4l-6.3,6.6c-0.2,0.2-0.3,0.5-0.2,0.8c0.1,0.3,0.3,0.5,0.6,0.6l9.5,2.8C39.3,124,39.7,124,39.9,123.8z"/>
		<polygon class="st2" points="65.7,117.3 37.3,90.9 65.4,61.8 67.6,59.3 71.3,55.5 99.6,81.8 95.9,85.6 93.6,88.1 71.6,111 
			69.3,113.5 		"/>
		<polygon class="st3" points="65.7,117.3 50.7,103.4 85,68.1 99.6,81.8 95.9,85.6 93.6,88.1 71.6,111 69.3,113.5 		"/>
		<path class="st3" d="M45.6,90.7c0-0.7,0.4-1.3,1-1.6c0.6-0.3,1.4-0.1,1.8,0.3l1.3,1.2c0.6,0.7,0.6,1.7,0,2.4S48,93.6,47.3,93
			L46,91.8C45.8,91.5,45.6,91.1,45.6,90.7z"/>
		<path class="st4" d="M69.3,113.5L52.5,98c-0.3-0.3-0.5-0.8-0.5-1.3c0-0.7,0.4-1.3,1.1-1.6c0.6-0.3,1.4-0.1,1.8,0.3l16.7,15.6l0,0
			L69.3,113.5z"/>
		<path class="st3" d="M71.7,67.7l-6.4-6l0,0l2.4-2.5l6.4,6c0.6,0.7,0.6,1.7,0,2.4C73.4,68.2,72.4,68.4,71.7,67.7z"/>
		<path class="st4" d="M93.6,88.1l-6.4-6c-0.3-0.3-0.5-0.8-0.5-1.3c0-0.7,0.4-1.3,1.1-1.6c0.6-0.3,1.4-0.1,1.8,0.3l6.4,6l0,0
			L93.6,88.1z"/>
		<polygon class="st4" points="65.7,117.3 50.6,117.7 37.7,105.7 37.3,90.9 		"/>
		<polygon class="st5" points="43.1,120.4 35.4,113.1 37.7,105.7 50.6,117.7 		"/>
		<path class="st0" d="M78.3,78.8l-2.7-2.5c-0.3-0.3-0.5-0.7-0.5-1.2c0-0.5,0.2-0.9,0.5-1.2l26.8-27.9c1.3-1.4,3.5-1.5,4.9-0.1
			l0.1,0.1c0.7,0.6,1.1,1.5,1.1,2.4c0,0.9-0.3,1.8-1,2.5L80.7,78.6C80.1,79.3,79,79.3,78.3,78.8z"/>
	</g>
</g>
</svg>
