<?xml version="1.0" encoding="utf-8"?>
<!-- Generator: Adobe Illustrator 23.1.0, SVG Export Plug-In . SVG Version: 6.00 Build 0)  -->
<svg version="1.1" id="Layer_1" xmlns="http://www.w3.org/2000/svg" xmlns:xlink="http://www.w3.org/1999/xlink" x="0px" y="0px"
	 viewBox="0 0 128 128" style="enable-background:new 0 0 128 128;" xml:space="preserve">
<style type="text/css">
	.st0{fill:#7D69EE;}
	.st1{fill:#2C3E50;}
	.st2{fill:#35495E;}
	.st3{fill:#556080;}
	.st4{fill:#547580;}
	.st5{fill:#A496F3;}
</style>
<title>009 - Highlighter</title>
<desc>Created with Sketch.</desc>
<g transform="translate(-1.000000, 0.000000)">
	<path id="Shape" class="st0" d="M15.3,127.5l4.2-4.5l9.7-3.5l19.5-0.5l-5.1-4.7l5.1,4.7l4.7-5l3.1-3.2l28.6-29.9l3.1-3.2l4.7-5
		l34.2-44.5c2.8-3.7,2.4-9-1-12L111.4,2.5c-3.5-3.2-8.7-3.3-12.3-0.3L56.3,38.4l-4.7,5l-3.1,3.2l-36.6,38l0.5,19.2l-2.9,9.7
		l-8.2,8.6c-0.3,0.3-0.4,0.6-0.3,1s0.4,0.6,0.8,0.8l12.4,3.7C14.5,127.8,15,127.7,15.3,127.5z"/>
	<polygon class="st1" points="48.9,119 11.9,84.6 48.5,46.6 51.4,43.4 56.3,38.4 93.1,72.7 88.3,77.7 85.3,80.9 56.7,110.8 
		53.6,114 	"/>
	<polygon class="st2" points="48.9,119 29.4,100.9 74.1,54.9 93.1,72.7 88.3,77.7 85.3,80.9 56.7,110.8 53.6,114 	"/>
	<path class="st2" d="M22.7,84.3c0-0.9,0.5-1.7,1.3-2.1s1.8-0.1,2.4,0.4l1.7,1.5c0.8,0.9,0.8,2.2,0,3.1s-2.2,0.9-3.1,0.1l-1.7-1.5
		C23,85.4,22.7,84.9,22.7,84.3z"/>
	<path class="st3" d="M53.6,114L31.8,93.8c-0.4-0.4-0.6-1-0.6-1.7c0-0.9,0.5-1.7,1.4-2.1c0.8-0.4,1.8-0.1,2.4,0.4l21.8,20.3l0,0
		L53.6,114z"/>
	<path class="st2" d="M56.8,54.4l-8.3-7.8l0,0l3.1-3.2l8.3,7.8c0.8,0.9,0.8,2.2,0,3.1C59,55,57.7,55.2,56.8,54.4z"/>
	<path class="st3" d="M85.3,80.9L77,73.1c-0.4-0.4-0.6-1-0.6-1.7c0-0.9,0.5-1.7,1.4-2.1c0.8-0.4,1.8-0.1,2.4,0.4l8.3,7.8l0,0
		L85.3,80.9z"/>
	<polygon class="st3" points="48.9,119 29.3,119.5 12.5,103.9 11.9,84.6 	"/>
	<polygon class="st4" points="19.5,123 9.5,113.6 12.5,103.9 29.3,119.5 	"/>
	<path class="st5" d="M65.4,68.8l-3.5-3.2c-0.4-0.4-0.6-0.9-0.6-1.5s0.3-1.2,0.6-1.5l35-36.4c1.7-1.8,4.5-1.9,6.4-0.1l0.1,0.1
		c0.9,0.8,1.4,1.9,1.4,3.1s-0.4,2.3-1.3,3.2l-35,36.1C67.7,69.5,66.3,69.5,65.4,68.8z"/>
</g>
</svg>
