<?xml version="1.0" encoding="utf-8"?>
<!-- Generator: Adobe Illustrator 23.1.0, SVG Export Plug-In . SVG Version: 6.00 Build 0)  -->
<svg version="1.1" id="Capa_1" xmlns="http://www.w3.org/2000/svg" xmlns:xlink="http://www.w3.org/1999/xlink" x="0px" y="0px"
	 viewBox="0 0 49.9 47.8" style="enable-background:new 0 0 49.9 47.8;" xml:space="preserve">
<style type="text/css">
	.st0{fill:#A496F3;}
</style>
<title>star</title>
<path class="st0" d="M48.9,21.7c1.4-1.4,1.4-3.7,0-5.1c-0.5-0.6-1.3-0.9-2-1l-12.1-1.8c-0.5-0.1-1-0.4-1.2-0.9L28.2,2
	c-0.9-1.8-3-2.5-4.8-1.6c-0.7,0.3-1.3,0.9-1.6,1.6l-5.4,11c-0.2,0.5-0.7,0.8-1.2,0.9L3.1,15.6c-2,0.3-3.3,2.1-3,4.1
	c0.1,0.8,0.5,1.5,1,2l8.8,8.5c0.4,0.4,0.5,0.9,0.5,1.4l-2.1,12c-0.2,1,0.1,2.1,0.8,2.9c1.1,1.3,2.9,1.6,4.4,0.9l10.8-5.7
	c0.5-0.2,1-0.2,1.5,0l10.8,5.7c0.5,0.3,1.1,0.4,1.7,0.4c1.1,0,2.1-0.5,2.8-1.3c0.7-0.8,1-1.9,0.8-2.9l-2.1-12
	c-0.1-0.5,0.1-1,0.5-1.4L48.9,21.7z"/>
</svg>
