<svg id="Capa_1" data-name="Capa 1" xmlns="http://www.w3.org/2000/svg" viewBox="0 0 49.94 47.85"><defs><style>.cls-1{fill:#fff;}</style></defs><title>star</title><path class="cls-1" d="M48.86,22.73a3.59,3.59,0,0,0-2-6.11L34.78,14.86A1.55,1.55,0,0,1,33.59,14L28.18,3a3.58,3.58,0,0,0-6.42,0L16.35,14a1.55,1.55,0,0,1-1.19.86L3.07,16.62a3.59,3.59,0,0,0-2,6.11l8.75,8.53a1.59,1.59,0,0,1,.46,1.4l-2.07,12A3.5,3.5,0,0,0,9,47.6a3.61,3.61,0,0,0,4.41.88l10.81-5.69a1.61,1.61,0,0,1,1.48,0l10.81,5.69a3.65,3.65,0,0,0,1.67.41,3.6,3.6,0,0,0,2.75-1.29,3.53,3.53,0,0,0,.78-2.9l-2.07-12a1.56,1.56,0,0,1,.46-1.4Z" transform="translate(0 -1.05)"/></svg>