<?xml version="1.0" encoding="utf-8"?>
<!-- Generator: Adobe Illustrator 23.1.0, SVG Export Plug-In . SVG Version: 6.00 Build 0)  -->
<svg version="1.1" id="Capa_1" xmlns="http://www.w3.org/2000/svg" xmlns:xlink="http://www.w3.org/1999/xlink" x="0px" y="0px"
	 viewBox="0 0 432.5 432.5" style="enable-background:new 0 0 432.5 432.5;" xml:space="preserve">
<style type="text/css">
	.st0{fill:#26B2EF;}
</style>
<g>
	<path class="st0" d="M422,229.8L217.8,26c-7.2-7.2-16.9-13.4-29.1-18.4c-12.2-5-23.3-7.6-33.4-7.6H36.5c-9.9,0-18.5,3.6-25.7,10.8
		C3.6,18.1,0,26.6,0,36.5v118.8c0,10.1,2.5,21.2,7.6,33.4s11.2,21.8,18.4,28.8L230.1,422c7,7,15.6,10.6,25.7,10.6
		c9.9,0,18.6-3.5,26-10.6L422,281.5c7-7,10.6-15.6,10.6-25.7C432.5,245.9,429,237.3,422,229.8z M117.2,117.2
		c-7.1,7.1-15.8,10.7-25.8,10.7c-10.1,0-18.7-3.6-25.8-10.7c-7.1-7.1-10.7-15.7-10.7-25.8c0-10.1,3.6-18.7,10.7-25.8
		c7.1-7.1,15.8-10.7,25.8-10.7c10.1,0,18.7,3.6,25.8,10.7c7.1,7.1,10.7,15.7,10.7,25.8C127.9,101.5,124.3,110.1,117.2,117.2z"/>
</g>
</svg>
