<?xml version="1.0" encoding="utf-8"?>
<!-- Generator: Adobe Illustrator 23.1.0, SVG Export Plug-In . SVG Version: 6.00 Build 0)  -->
<svg version="1.1" id="Layer_1" xmlns="http://www.w3.org/2000/svg" xmlns:xlink="http://www.w3.org/1999/xlink" x="0px" y="0px"
	 viewBox="0 0 24.2 24.2" style="enable-background:new 0 0 24.2 24.2;" xml:space="preserve">
<style type="text/css">
	.st0{fill:#D3D3D3;}
	.st1{fill:none;stroke:#A496F3;stroke-width:2;stroke-miterlimit:10;}
	.st2{fill:#26B2EF;}
</style>
<ellipse class="st0" cx="11.9" cy="12" rx="10.9" ry="11.2"/>
<circle class="st1" cx="12" cy="12.2" r="11"/>
<g>
	<path class="st2" d="M18.3,12.5l-6.1-6.1c-0.2-0.2-0.5-0.4-0.9-0.6c-0.4-0.2-0.7-0.2-1-0.2H6.7c-0.3,0-0.6,0.1-0.8,0.3
		C5.7,6.1,5.6,6.4,5.6,6.7v3.6c0,0.3,0.1,0.6,0.2,1s0.3,0.7,0.6,0.9l6.1,6.1c0.2,0.2,0.5,0.3,0.8,0.3c0.3,0,0.6-0.1,0.8-0.3l4.2-4.2
		c0.2-0.2,0.3-0.5,0.3-0.8C18.6,13,18.5,12.7,18.3,12.5z M9.1,9.1C8.9,9.3,8.6,9.4,8.3,9.4C8,9.4,7.8,9.3,7.6,9.1
		C7.4,8.9,7.2,8.6,7.2,8.3c0-0.3,0.1-0.6,0.3-0.8C7.8,7.4,8,7.2,8.3,7.2c0.3,0,0.6,0.1,0.8,0.3C9.3,7.8,9.4,8,9.4,8.3
		C9.4,8.6,9.3,8.9,9.1,9.1z"/>
</g>
</svg>
