<?xml version="1.0" encoding="utf-8"?>
<!-- Generator: Adobe Illustrator 23.1.0, SVG Export Plug-In . SVG Version: 6.00 Build 0)  -->
<svg version="1.1" id="Layer_1" xmlns="http://www.w3.org/2000/svg" xmlns:xlink="http://www.w3.org/1999/xlink" x="0px" y="0px"
	 viewBox="0 0 407 407" style="enable-background:new 0 0 407 407;" xml:space="preserve">
<style type="text/css">
	.st0{fill:#FFFFFF;}
</style>
<g>
	<path class="st0" d="M135.2,37c0-12.1,9.8-21,22.3-21h91.8c12.5,0,22.3,8.9,22.3,21v23h16.5V37c0-21-17.2-37-38.9-37h-91.8
		c-21.7,0-38.9,16-38.9,37v23h16.5V37z"/>
	<path class="st0" d="M72.2,124v247c0,20,14.6,36,33.5,36h195.7c18.9,0,33.5-16,33.5-36V124H72.2z M142.3,351.2c0,4.4-4.3,8-9.6,8
		c-5.3,0-9.6-3.6-9.6-8v-189c0-4.4,4.3-8,9.6-8c5.3,0,9.6,3.6,9.6,8V351.2z M213.5,351.2c0,4.4-4.3,8-9.6,8c-5.3,0-9.6-3.6-9.6-8
		v-189c0-4.4,4.3-8,9.6-8c5.3,0,9.6,3.6,9.6,8V351.2z M284.6,351.2c0,4.4-4.3,8-9.6,8c-5.3,0-9.6-3.6-9.6-8v-189c0-4.4,4.3-8,9.6-8
		c5.3,0,9.6,3.6,9.6,8V351.2z"/>
	<path class="st0" d="M63.7,108h279.6c11.4,0,20.7-9,20.7-20s-9.3-20-20.7-20H63.7C52.3,68,43,77,43,88S52.3,108,63.7,108z"/>
</g>
</svg>
