<?xml version="1.0" encoding="utf-8"?>
<!-- Generator: Adobe Illustrator 23.1.0, SVG Export Plug-In . SVG Version: 6.00 Build 0)  -->
<svg version="1.1" id="Layer_1" xmlns="http://www.w3.org/2000/svg" xmlns:xlink="http://www.w3.org/1999/xlink" x="0px" y="0px"
	 viewBox="0 0 504.1 504.1" style="enable-background:new 0 0 504.1 504.1;" xml:space="preserve">
<style type="text/css">
	.st0{fill:#35C1D8;}
	.st1{fill:#19AACC;}
	.st2{fill:#66CDDD;}
	.st3{fill:#077E9E;}
	.st4{fill:#CDCFCF;}
	.st5{fill:#177199;}
	.st6{fill:#CCD0D2;}
	.st7{fill:#DCDEDF;}
	.st8{fill:#E4E7E7;}
	.st9{fill:#B7BBBD;}
	.st10{fill:#C6C7C8;}
</style>
<path class="st0" d="M406.6,430.1c0,41-68.9,74-154.4,74c-85.1,0-154.4-33.1-154.4-74L67.1,98.5h370.2L406.6,430.1z"/>
<path class="st1" d="M67.1,98.5l4.7,50.8c29.5,35.1,99.2,59.5,180.4,59.5s150.8-24.4,180.4-59.5l4.7-50.8
	C437.3,98.5,67.1,98.5,67.1,98.5z M252.2,261.5c-6.7,0-12.6,5.5-12.6,12.6v168.2c0,6.7,5.5,12.6,12.6,12.6c6.7,0,12.6-5.5,12.6-12.6
	V273.7C264.8,267,258.9,261.5,252.2,261.5z M314.5,255.2c-6.7,0-12.6,5.5-12.6,12.6l-6.3,167.8c0,6.7,5.5,12.6,12.6,12.6
	c6.7,0,12.6-5.5,12.6-12.6l5.9-167.8C326.7,260.7,321.2,255.2,314.5,255.2z M370.4,242.6c-6.7,0-12.6,5.5-12.6,12.6l-12.6,165
	c0,6.7,5.5,12.6,12.6,12.6c6.7,0,12.6-5.5,12.6-12.6l12.6-165C383,248.5,377.1,242.6,370.4,242.6z M190,255.2
	c-6.7,0-12.6,5.5-12.6,12.6l6.3,168.2c0,6.7,5.5,12.6,12.6,12.6c7.1,0,12.6-5.5,12.6-12.6l-6.3-168.2
	C202.6,260.7,196.7,255.2,190,255.2z M134.1,242.6c-6.7,0-12.6,5.5-12.6,12.6l12.6,165c0,6.7,5.5,12.6,12.6,12.6s12.6-5.5,12.6-12.6
	l-12.6-165C146.3,248.5,140.8,242.6,134.1,242.6z"/>
<path class="st2" d="M428.7,72.1c15.4,15.4,12.2,33.1,12.2,33.9c0,52.4-84.7,94.9-189,94.9S63.2,158.3,63.2,105.9
	c0-0.4-2.8-18.9,11.8-33.9C86,59.9,418,59.9,428.7,72.1z"/>
<path class="st3" d="M252.2,0c102.4,0,185.1,40.6,185.1,90.6s-82.7,90.6-185.1,90.6S67.1,140.6,67.1,90.6S149.8,0,252.2,0z"/>
<path class="st4" d="M145.9,137.1l-18.1,20.5c33.1,14.2,76.4,23.2,124.5,23.2s91.4-8.7,124.5-23.2l-18.1-20.5
	c-30.3,11.4-67,18.5-106.3,18.5C212.5,155.6,175.8,148.5,145.9,137.1z"/>
<path class="st5" d="M252.2,31.5c83.1,0,154.4,24.8,185.1,59.9v-0.8c0-50-82.7-90.6-185.1-90.6S67.1,40.6,67.1,90.6v0.8
	C97.8,56.3,169.1,31.5,252.2,31.5z"/>
<path class="st6" d="M252.2,181.2c48,0,91.8-9.1,124.5-23.6l-55.9-64.2L244,181.2H252.2z"/>
<path class="st7" d="M158.9,168.2l1.2,1.2c27.2,7.5,58.7,11.8,92.2,11.8c26.8,0,52.4-2.8,75.6-7.9l5.1-5.1l-87-99.6
	C245.9,68.5,158.9,168.2,158.9,168.2z"/>
<path class="st8" d="M252.2,181.2h8.3l-76.8-87.8l-55.9,64.2C160.5,172.5,204.2,181.2,252.2,181.2z"/>
<path class="st9" d="M244.4,180.4h7.5c47.7,0,91.4-8.7,124.5-23.2l-17.7-20.1c-26.4,10.2-57.9,16.9-92.2,18.5L244.4,180.4z"/>
<path class="st10" d="M316.4,149.3c-20.1,4.3-41.7,6.7-64.2,6.7c-26.4,0-51.6-3.2-74.4-9.1l-18.5,21.3l0.4,0.4
	c27.2,7.5,59.1,11.8,92.9,11.8c27.2,0,53.2-2.8,76.4-7.9l4.7-4.7C333.8,167.8,316.4,149.3,316.4,149.3z"/>
<path class="st4" d="M259.7,180.4l-22.1-25.2c-34.3-1.6-65.8-8.3-92.2-18.5l-17.7,20.9c33.1,14.2,76.4,23.2,124.5,23.2
	C254.6,180.4,257.3,180.4,259.7,180.4z"/>
</svg>
